<svg width="20" height="20" viewBox="0 0 20 20" fill="none" xmlns="http://www.w3.org/2000/svg">
<path fill-rule="evenodd" clip-rule="evenodd" d="M16.9059 4.36922C17.2301 4.36922 17.5 4.63838 17.5 4.98088V5.29754C17.5 5.63171 17.2301 5.90921 16.9059 5.90921H3.09488C2.76988 5.90921 2.5 5.63171 2.5 5.29754V4.98088C2.5 4.63838 2.76988 4.36922 3.09488 4.36922H5.52464C6.01821 4.36922 6.44775 4.01839 6.55879 3.5234L6.68603 2.95507C6.88378 2.18091 7.53458 1.66675 8.27939 1.66675H11.7206C12.4573 1.66675 13.1154 2.18091 13.3059 2.91424L13.442 3.52256C13.5522 4.01839 13.9818 4.36922 14.4762 4.36922H16.9059ZM15.6715 15.9449C15.9252 13.5808 16.3694 7.96418 16.3694 7.90751C16.3856 7.73585 16.3296 7.57335 16.2186 7.44252C16.0995 7.32002 15.9487 7.24752 15.7826 7.24752H4.22379C4.05684 7.24752 3.89799 7.32002 3.78776 7.44252C3.67592 7.57335 3.62081 7.73585 3.62891 7.90751C3.6304 7.91792 3.64634 8.11576 3.67298 8.44652C3.79134 9.91589 4.121 14.0084 4.33401 15.9449C4.48476 17.3716 5.42084 18.2682 6.77674 18.3007C7.82305 18.3249 8.90096 18.3332 10.0032 18.3332C11.0414 18.3332 12.0958 18.3249 13.1745 18.3007C14.5774 18.2766 15.5127 17.3957 15.6715 15.9449Z" fill="#CF3636"/>
</svg>
